<svg width="530" height="129" viewBox="0 0 530 129" fill="none" xmlns="http://www.w3.org/2000/svg">
<g opacity="0.25">
<path fill-rule="evenodd" clip-rule="evenodd" d="M524.023 47.2566C527.465 44.7174 529 42.2811 529 40C529 37.7189 527.465 35.2826 524.023 32.7434C520.607 30.2236 515.505 27.751 508.839 25.372C495.519 20.6184 476.188 16.3202 452.234 12.7045C404.342 5.47547 338.144 1 265 1C191.856 1 125.658 5.47547 77.766 12.7045C53.812 16.3202 34.4814 20.6184 21.1611 25.372C14.4949 27.751 9.39347 30.2236 5.97747 32.7434C2.53513 35.2826 1 37.7189 1 40C1 42.2811 2.53513 44.7174 5.97747 47.2566C9.39347 49.7764 14.4949 52.249 21.1611 54.628C34.4814 59.3816 53.812 63.6798 77.766 67.2955C125.658 74.5245 191.856 79 265 79C338.144 79 404.342 74.5245 452.234 67.2955C476.188 63.6798 495.519 59.3816 508.839 54.628C515.505 52.249 520.607 49.7764 524.023 47.2566ZM265 80C411.355 80 530 62.0914 530 40C530 17.9086 411.355 0 265 0C118.645 0 0 17.9086 0 40C0 62.0914 118.645 80 265 80Z" fill="white"/>
<path fill-rule="evenodd" clip-rule="evenodd" d="M524.023 59.2566C527.465 56.7174 529 54.2811 529 52C529 49.7189 527.465 47.2826 524.023 44.7434C520.607 42.2236 515.505 39.751 508.839 37.372C495.519 32.6184 476.188 28.3202 452.234 24.7045C404.342 17.4755 338.144 13 265 13C191.856 13 125.658 17.4755 77.766 24.7045C53.812 28.3202 34.4814 32.6184 21.1611 37.372C14.4949 39.751 9.39347 42.2236 5.97747 44.7434C2.53513 47.2826 1 49.7189 1 52C1 54.2811 2.53513 56.7174 5.97747 59.2566C9.39347 61.7764 14.4949 64.249 21.1611 66.628C34.4814 71.3816 53.812 75.6798 77.766 79.2955C125.658 86.5245 191.856 91 265 91C338.144 91 404.342 86.5245 452.234 79.2955C476.188 75.6798 495.519 71.3816 508.839 66.628C515.505 64.249 520.607 61.7764 524.023 59.2566ZM265 92C411.355 92 530 74.0914 530 52C530 29.9086 411.355 12 265 12C118.645 12 0 29.9086 0 52C0 74.0914 118.645 92 265 92Z" fill="white"/>
<path fill-rule="evenodd" clip-rule="evenodd" d="M524.023 72.2566C527.465 69.7174 529 67.2811 529 65C529 62.7189 527.465 60.2826 524.023 57.7434C520.607 55.2236 515.505 52.751 508.839 50.372C495.519 45.6184 476.188 41.3202 452.234 37.7045C404.342 30.4755 338.144 26 265 26C191.856 26 125.658 30.4755 77.766 37.7045C53.812 41.3202 34.4814 45.6184 21.1611 50.372C14.4949 52.751 9.39347 55.2236 5.97747 57.7434C2.53513 60.2826 1 62.7189 1 65C1 67.2811 2.53513 69.7174 5.97747 72.2566C9.39347 74.7764 14.4949 77.249 21.1611 79.628C34.4814 84.3816 53.812 88.6798 77.766 92.2955C125.658 99.5245 191.856 104 265 104C338.144 104 404.342 99.5245 452.234 92.2955C476.188 88.6798 495.519 84.3816 508.839 79.628C515.505 77.249 520.607 74.7764 524.023 72.2566ZM265 105C411.355 105 530 87.0914 530 65C530 42.9086 411.355 25 265 25C118.645 25 0 42.9086 0 65C0 87.0914 118.645 105 265 105Z" fill="white"/>
<path fill-rule="evenodd" clip-rule="evenodd" d="M524.023 84.2566C527.465 81.7174 529 79.2811 529 77C529 74.7189 527.465 72.2826 524.023 69.7434C520.607 67.2236 515.505 64.751 508.839 62.372C495.519 57.6184 476.188 53.3202 452.234 49.7045C404.342 42.4755 338.144 38 265 38C191.856 38 125.658 42.4755 77.766 49.7045C53.812 53.3202 34.4814 57.6184 21.1611 62.372C14.4949 64.751 9.39347 67.2236 5.97747 69.7434C2.53513 72.2826 1 74.7189 1 77C1 79.2811 2.53513 81.7174 5.97747 84.2566C9.39347 86.7764 14.4949 89.249 21.1611 91.628C34.4814 96.3816 53.812 100.68 77.766 104.295C125.658 111.525 191.856 116 265 116C338.144 116 404.342 111.525 452.234 104.295C476.188 100.68 495.519 96.3816 508.839 91.628C515.505 89.249 520.607 86.7764 524.023 84.2566ZM265 117C411.355 117 530 99.0914 530 77C530 54.9086 411.355 37 265 37C118.645 37 0 54.9086 0 77C0 99.0914 118.645 117 265 117Z" fill="white"/>
<path fill-rule="evenodd" clip-rule="evenodd" d="M524.023 96.2566C527.465 93.7174 529 91.2811 529 89C529 86.7189 527.465 84.2826 524.023 81.7434C520.607 79.2236 515.505 76.751 508.839 74.372C495.519 69.6184 476.188 65.3202 452.234 61.7045C404.342 54.4755 338.144 50 265 50C191.856 50 125.658 54.4755 77.766 61.7045C53.812 65.3202 34.4814 69.6184 21.1611 74.372C14.4949 76.751 9.39347 79.2236 5.97747 81.7434C2.53513 84.2826 1 86.7189 1 89C1 91.2811 2.53513 93.7174 5.97747 96.2566C9.39347 98.7764 14.4949 101.249 21.1611 103.628C34.4814 108.382 53.812 112.68 77.766 116.295C125.658 123.525 191.856 128 265 128C338.144 128 404.342 123.525 452.234 116.295C476.188 112.68 495.519 108.382 508.839 103.628C515.505 101.249 520.607 98.7764 524.023 96.2566ZM265 129C411.355 129 530 111.091 530 89C530 66.9086 411.355 49 265 49C118.645 49 0 66.9086 0 89C0 111.091 118.645 129 265 129Z" fill="white"/>
</g>
</svg>
