<svg width="24" height="24" viewBox="0 0 24 24" fill="none" xmlns="http://www.w3.org/2000/svg">
<path fill-rule="evenodd" clip-rule="evenodd" d="M12.1703 1.00012C11.9786 1.00388 11.796 1.08461 11.6617 1.22497C11.5274 1.36532 11.4522 1.55408 11.4522 1.75068V16.0174C11.4522 16.2164 11.5294 16.4074 11.6667 16.5482C11.8039 16.6889 11.9902 16.7679 12.1843 16.7679C12.3784 16.7679 12.5647 16.6889 12.702 16.5482C12.8393 16.4074 12.9163 16.2164 12.9163 16.0174V1.75068C12.9164 1.65099 12.897 1.55228 12.8594 1.46034C12.8219 1.3684 12.7668 1.28506 12.6974 1.21518C12.6281 1.14531 12.5457 1.09031 12.4555 1.05338C12.3651 1.01646 12.2675 0.998347 12.1703 1.00012ZM23.2473 5.27379C23.1516 5.27662 23.0575 5.29856 22.9702 5.33838L16.6876 8.21346C16.5591 8.273 16.4501 8.36928 16.3736 8.49077C16.2971 8.61226 16.2564 8.7538 16.2564 8.8984C16.2564 9.043 16.2971 9.18453 16.3736 9.30602C16.4501 9.42751 16.5591 9.52379 16.6876 9.58333L22.9702 12.4676C23.0646 12.5112 23.1668 12.5339 23.2702 12.5343C23.4376 12.5338 23.5997 12.4744 23.7296 12.3662C23.8596 12.2579 23.9493 12.1073 23.984 11.9395C24.0188 11.7716 23.9964 11.5966 23.9205 11.4437C23.8447 11.2907 23.72 11.169 23.5672 11.0988L18.7809 8.89942L23.5672 6.70825C23.744 6.62667 23.882 6.47674 23.9514 6.2912C24.0207 6.10564 24.0157 5.89951 23.9373 5.71776C23.8779 5.58215 23.7807 5.46763 23.6578 5.38862C23.5351 5.3096 23.3921 5.26964 23.2473 5.27379ZM0.418719 10.5054C0.520715 10.4559 0.6325 10.4312 0.745338 10.4333V10.4344C0.904831 10.4376 1.05894 10.4941 1.18423 10.5953C1.30951 10.6966 1.39911 10.837 1.4394 10.9952C2.20562 14.0045 3.92383 16.6681 6.32485 18.5689C8.72587 20.4696 11.674 21.5001 14.7075 21.4989C14.9016 21.4989 15.0879 21.578 15.2252 21.7188C15.3625 21.8595 15.4395 22.0505 15.4395 22.2494C15.4395 22.4485 15.3625 22.6395 15.2252 22.7802C15.0879 22.921 14.9016 23 14.7075 23C7.79893 23 1.75942 18.2178 0.0232771 11.3715C-0.00495574 11.2595 -0.00754286 11.1423 0.0157179 11.0291C0.0389786 10.9159 0.0874574 10.8097 0.157367 10.7188C0.227276 10.628 0.316723 10.555 0.418719 10.5054Z" fill="white"/>
</svg>
