<svg width="24" height="24" viewBox="0 0 24 24" fill="none" xmlns="http://www.w3.org/2000/svg">
<path d="M23.2803 5.2449C22.4243 5.62425 21.5046 5.88059 20.5376 5.99644C21.5353 5.39951 22.2817 4.46 22.6375 3.35323C21.7002 3.90996 20.6743 4.30183 19.6047 4.51182C18.8853 3.74373 17.9325 3.23463 16.8941 3.06356C15.8558 2.89249 14.7899 3.06901 13.8622 3.56573C12.9344 4.06245 12.1967 4.85156 11.7634 5.81055C11.33 6.76955 11.2255 7.84478 11.4659 8.86931C9.56669 8.77396 7.70881 8.28033 6.01275 7.42047C4.31671 6.56061 2.82042 5.35375 1.62099 3.87819C1.21087 4.58564 0.975051 5.40587 0.975051 6.27942C0.974596 7.06582 1.16825 7.84017 1.53884 8.53377C1.90943 9.22737 2.44549 9.81877 3.09946 10.2555C2.34103 10.2314 1.59933 10.0264 0.936098 9.65777V9.71929C0.936012 10.8222 1.31753 11.8912 2.01592 12.7449C2.71429 13.5986 3.68651 14.1843 4.76761 14.4028C4.06405 14.5932 3.3264 14.6212 2.6104 14.4848C2.91542 15.4339 3.50958 16.2638 4.30969 16.8584C5.1098 17.4529 6.07581 17.7824 7.07248 17.8006C5.38057 19.1289 3.29108 19.8492 1.14013 19.846C0.759112 19.8462 0.378416 19.8239 0 19.7795C2.18334 21.1833 4.72491 21.9283 7.32059 21.9253C16.1074 21.9253 20.9109 14.6478 20.9109 8.33616C20.9109 8.1311 20.9058 7.92399 20.8965 7.71893C21.8309 7.04323 22.6374 6.20652 23.2782 5.24798L23.2803 5.2449Z" fill="white"/>
</svg>
